<svg xmlns="http://www.w3.org/2000/svg" xml:space="preserve" width="250" height="284.50003" viewBox="0 0 66.145833 75.273966" fill="currentColor">
<path d="M66.145833 51.593751v-19.84375c-11.042319-6.141466-22.077514-12.295645-33.072917-18.520833C22.048611 19.402779 11.024305 25.57639 0 31.750001v19.84375c11.024305-6.173611 22.048611-12.347222 33.072916-18.520833 11.024306 6.173611 22.048611 12.347222 33.072917 18.520833ZM0 26.458334c7.849305-4.409722 15.698611-8.819445 23.547916-13.229167C15.698611 8.819445 7.849305 4.409722 0 0v26.458334Z"/>
<path d="M0 56.753124c11.024305 6.173613 22.048611 12.347227 33.072916 18.52084 11.024306-6.173613 22.048611-12.347227 33.072917-18.52084L47.625 46.434378c-4.850695 2.734028-9.701389 5.468055-14.552084 8.202083-4.850694-2.734028-9.701389-5.468055-14.552083-8.202083C12.352694 49.88272 6.229007 53.417285 0 56.753124Z"/>
<path d="M33.072916 38.364583c3.351389 1.852084 6.70278 3.704166 10.054167 5.556251-3.35139 1.852082-6.702778 3.704167-10.054167 5.55625-3.351388-1.852084-6.702779-3.704166-10.054166-5.556251 3.35139-1.852082 6.702777-3.704167 10.054166-5.55625z"/>
</svg>