<?xml version="1.0" encoding="UTF-8" standalone="no"?>
<svg
   version="1.0"
   viewBox="0 0 640 640"
   id="svg8"
   sodipodi:docname="logo.svg"
   inkscape:export-filename="logo.png"
   inkscape:export-xdpi="96"
   inkscape:export-ydpi="96"
   inkscape:version="1.2.1 (9c6d41e410, 2022-07-14)"
   xmlns:inkscape="http://www.inkscape.org/namespaces/inkscape"
   xmlns:sodipodi="http://sodipodi.sourceforge.net/DTD/sodipodi-0.dtd"
   xmlns="http://www.w3.org/2000/svg"
   xmlns:svg="http://www.w3.org/2000/svg">
  <defs
     id="defs12" />
  <sodipodi:namedview
     id="namedview10"
     pagecolor="#ffffff"
     bordercolor="#000000"
     borderopacity="0.25"
     inkscape:showpageshadow="2"
     inkscape:pageopacity="0.0"
     inkscape:pagecheckerboard="0"
     inkscape:deskcolor="#d1d1d1"
     showgrid="false"
     inkscape:zoom="1.565625"
     inkscape:cx="214.61078"
     inkscape:cy="291.25749"
     inkscape:window-width="3440"
     inkscape:window-height="1417"
     inkscape:window-x="1912"
     inkscape:window-y="-8"
     inkscape:window-maximized="1"
     inkscape:current-layer="svg8" />
  <path
     d="M378.5 234.9c-12.9 3.7-24.9 10.7-49.5 28.9-53 39.4-92.7 50.9-143.5 41.6-1.6-.3 2.2 2 8.5 5.1 57 28.4 92.4 20.5 152.8-34 23.9-21.5 50-33.1 78.2-34.7 4.5-.3 4.5-.3-4-3.5-15-5.8-30.1-7-42.5-3.4"
     id="path2" />
  <path
     d="M437.6 250.6c-24.6 4.8-49.4 17.6-100.1 51.4-44.4 29.6-66.6 41.8-83.4 46.1-30.1 7.6-84.9-6.8-140-37-12.4-6.7-12.2-6.3 2.2 6 61.4 52.7 82.6 64.2 118.2 64.3 34.7.1 62.5-12.6 119.7-54.7 57.6-42.4 76.7-51.9 106.8-53.3 24-1.2 53 6.8 69.8 19.3 5.3 4 4.7 2.1-2.1-5.8-26.8-31.3-56.6-43.2-91.1-36.3"
     id="path4" />
  <path
     d="M459 286.4c-41.9 9.8-88.1 45.4-141.4 108.8-4.5 5.4-5.3 8.5-1 3.7 2.7-3 23.9-20.1 37.9-30.6 69.4-51.9 129.5-72.6 164-56.6 3.3 1.5 6.4 2.9 7 3.2 1.6.7-5.7-8-10.8-12.8-14.5-13.8-37-20.1-55.7-15.7"
     id="path6" />
</svg>
